# xmcd
#
# Track frame offsets: 
#        150
#        12482
#        25623
#        38143
#        49962
#        61725
#        74005
#        85889
#        98298
#        112895
#        126772
#        139870
#        150412
#        160344
#        173538
#        187363
#        200061
#        213640
#        226098
#        237318
#        251081
#        265152
#        279961
#        292135
#        306695
#
# Disc length: 4282 seconds
#
# Revision: 0
# Processed by: cddbd v1.5.2PL0 Copyright (c) Steve Scherf et al.
# Submitted via: ExactAudioCopy v0.99pb5
#
DISCID=6c10b819
DTITLE=Various Artist - A Cowboy's Life Is Good Enough For Me [CD4)
DYEAR=2004
DGENRE=Country
TTITLE0=Tex Ritter - Old Chisholm Trail
TTITLE1=Elton Britt - Blue Texas Moonlight
TTITLE2=Slim Clark - Little Old Sod Shanty
TTITLE3=Shorty Long and The Santa Fe Rangers - Waltz Of Colorado
TTITLE4=Cole Wilson and The Tumbleweeds - The Outlaw
TTITLE5=Dusty Rankin - Going Back To My Little Western Home
TTITLE6=Red River Dave - Sierra Sue
TTITLE7=Cliff Carlisle and Fred Kirby - The Cowboy's Dying Dream
TTITLE8=Tex Morton - The Story Of Parson Joe
TTITLE9=Gene Autry - Ride Tenderfoot Ride
TTITLE10=Tim McNamara (The Cowboy Troubadour) - Campfire Of Dreams
TTITLE11=Elton Britt and The Beaver Valley Sweetheart - The Rovin' Gambl
TTITLE11=er
TTITLE12=Legarde Twins (Tom and Ted) - Before The Dawn
TTITLE13=Kenny Roberts and The Pinetoppers - Beautiful Ohio
TTITLE14=Jimmie and Leon Short - Alla En El Rancho Grande
TTITLE15=Carson Robison - I'm An Old Cowhand
TTITLE16=Josef Marais and His Hill-Billy Rangers - Covered-Wagon Lullaby
TTITLE17=Jesse Rogers - Cattle Call
TTITLE18=Sons Of The Pioneers - Red River Valley
TTITLE19=Dick Thomas - Halfway To Montana
TTITLE20=Frank Luther and Carson Robison (As Bud and Joe Billings) - Misso
TTITLE20=uri Valley
TTITLE21=Buddy Williams (The Yodelling Jackaroo) - Riding Down The Val
TTITLE21=ley
TTITLE22=Hank Snow (As Hank, The Singing Ranger) - I'll Ride Back To L
TTITLE22=onesome Valley
TTITLE23=Smoky Dawson and His Rocky Canyon Boys) - Will I Meet Old Faith
TTITLE23=ful Up Yonder
TTITLE24=Wilf Carter (Montana Slim) - I'm Hittin' The Trail
EXTD=
EXTT0=
EXTT1=
EXTT2=
EXTT3=
EXTT4=
EXTT5=
EXTT6=
EXTT7=
EXTT8=
EXTT9=
EXTT10=
EXTT11=
EXTT12=
EXTT13=
EXTT14=
EXTT15=
EXTT16=
EXTT17=
EXTT18=
EXTT19=
EXTT20=
EXTT21=
EXTT22=
EXTT23=
EXTT24=
PLAYORDER=
